<svg id="heart_1_" data-name="heart (1)" xmlns="http://www.w3.org/2000/svg" width="21.029" height="18.113" viewBox="0 0 21.029 18.113">
  <path id="Path_4607" data-name="Path 4607" d="M19.339,7.472a5.733,5.733,0,0,0-8.294,0l-.531.549-.531-.549a5.732,5.732,0,0,0-8.294,0,6.293,6.293,0,0,0-.034,8.548c2.026,2.329,8,7.362,8.253,7.575a.905.905,0,0,0,.585.215h.02a.876.876,0,0,0,.605-.215c.253-.213,6.228-5.245,8.254-7.575A6.294,6.294,0,0,0,19.339,7.472Zm-1.347,7.262a100.184,100.184,0,0,1-7.479,6.889,99.97,99.97,0,0,1-7.478-6.889A4.349,4.349,0,0,1,3,8.831a3.917,3.917,0,0,1,5.668,0l1.167,1.208a.888.888,0,0,0,.5.26.91.91,0,0,0,.854-.259l1.168-1.208a3.918,3.918,0,0,1,5.668,0A4.349,4.349,0,0,1,17.993,14.734Z" transform="translate(0 -5.697)"/>
</svg>
